{
	"asset":{
		"generator":"Khronos glTF Blender I/O v4.1.62",
		"version":"2.0"
	},
	"extensionsUsed":[
		"KHR_materials_specular",
		"KHR_materials_ior"
	],
	"scene":0,
	"scenes":[
		{
			"name":"Scene",
			"nodes":[
				0
			]
		}
	],
	"nodes":[
		{
			"mesh":0,
			"name":"AppleT4"
		}
	],
	"materials":[
		{
			"doubleSided":true,
			"extensions":{
				"KHR_materials_specular":{
					"specularFactor":0.7214699983596802
				},
				"KHR_materials_ior":{
					"ior":1.4500000476837158
				}
			},
			"name":"Apfel_1_Schale",
			"normalTexture":{
				"index":0,
				"scale":0.5
			},
			"pbrMetallicRoughness":{
				"baseColorTexture":{
					"index":1
				},
				"metallicFactor":0,
				"metallicRoughnessTexture":{
					"index":2
				}
			}
		},
		{
			"doubleSided":true,
			"name":"Apfel_1_Stengel",
			"pbrMetallicRoughness":{}
		}
	],
	"meshes":[
		{
			"name":"Sphere.003",
			"primitives":[
				{
					"attributes":{
						"POSITION":0,
						"NORMAL":1,
						"TEXCOORD_0":2
					},
					"indices":3,
					"material":0
				},
				{
					"attributes":{
						"POSITION":4,
						"NORMAL":5,
						"TEXCOORD_0":6
					},
					"indices":7,
					"material":1
				}
			]
		}
	],
	"textures":[
		{
			"sampler":0,
			"source":0
		},
		{
			"sampler":0,
			"source":1
		},
		{
			"sampler":0,
			"source":2
		}
	],
	"images":[
		{
			"mimeType":"image/jpeg",
			"name":"Apfel_1_normal",
			"uri":"Apfel_1_normal.jpg"
		},
		{
			"mimeType":"image/jpeg",
			"name":"Apfel_1_diffuse",
			"uri":"Apfel_1_diffuse.jpg"
		},
		{
			"mimeType":"image/png",
			"name":"Apfel_1_diffuse",
			"uri":"Apfel_1_diffuse.png"
		}
	],
	"accessors":[
		{
			"bufferView":0,
			"componentType":5126,
			"count":882,
			"max":[
				0.04212618246674538,
				0.040135812014341354,
				0.041603993624448776
			],
			"min":[
				-0.04142603650689125,
				-0.03813328221440315,
				-0.040570780634880066
			],
			"type":"VEC3"
		},
		{
			"bufferView":1,
			"componentType":5126,
			"count":882,
			"type":"VEC3"
		},
		{
			"bufferView":2,
			"componentType":5126,
			"count":882,
			"type":"VEC2"
		},
		{
			"bufferView":3,
			"componentType":5123,
			"count":3654,
			"type":"SCALAR"
		},
		{
			"bufferView":4,
			"componentType":5126,
			"count":134,
			"max":[
				0.0008324441150762141,
				0.04463557153940201,
				0.015272805467247963
			],
			"min":[
				-0.015691248700022697,
				0.023700101301074028,
				0.002664553001523018
			],
			"type":"VEC3"
		},
		{
			"bufferView":5,
			"componentType":5126,
			"count":134,
			"type":"VEC3"
		},
		{
			"bufferView":6,
			"componentType":5126,
			"count":134,
			"type":"VEC2"
		},
		{
			"bufferView":7,
			"componentType":5123,
			"count":642,
			"type":"SCALAR"
		}
	],
	"bufferViews":[
		{
			"buffer":0,
			"byteLength":10584,
			"byteOffset":0,
			"target":34962
		},
		{
			"buffer":0,
			"byteLength":10584,
			"byteOffset":10584,
			"target":34962
		},
		{
			"buffer":0,
			"byteLength":7056,
			"byteOffset":21168,
			"target":34962
		},
		{
			"buffer":0,
			"byteLength":7308,
			"byteOffset":28224,
			"target":34963
		},
		{
			"buffer":0,
			"byteLength":1608,
			"byteOffset":35532,
			"target":34962
		},
		{
			"buffer":0,
			"byteLength":1608,
			"byteOffset":37140,
			"target":34962
		},
		{
			"buffer":0,
			"byteLength":1072,
			"byteOffset":38748,
			"target":34962
		},
		{
			"buffer":0,
			"byteLength":1284,
			"byteOffset":39820,
			"target":34963
		}
	],
	"samplers":[
		{
			"magFilter":9729,
			"minFilter":9987
		}
	],
	"buffers":[
		{
			"byteLength":41104,
			"uri":"apple.bin"
		}
	]
}
