{
	"asset":{
		"generator":"Khronos glTF Blender I/O v4.1.62",
		"version":"2.0"
	},
	"extensionsUsed":[
		"KHR_materials_emissive_strength"
	],
	"scene":0,
	"scenes":[
		{
			"name":"Scene",
			"nodes":[
				0,
				1,
				2,
				3,
				4
			]
		}
	],
	"nodes":[
		{
			"mesh":0,
			"name":"Plane.002",
			"rotation":[
				0,
				0,
				-0.35340616106987,
				0.9354699850082397
			],
			"translation":[
				-2.980353593826294,
				5.718985557556152,
				0
			]
		},
		{
			"mesh":1,
			"name":"Plane.001",
			"rotation":[
				0,
				0,
				-0.3030088245868683,
				0.952987790107727
			],
			"translation":[
				4.640427589416504,
				3.3405914306640625,
				0
			]
		},
		{
			"mesh":2,
			"name":"Plane",
			"translation":[
				2.069424629211426,
				-0.2590973377227783,
				-0.22405676543712616
			]
		},
		{
			"name":"Empty",
			"translation":[
				0.06942453235387802,
				-0.2590973377227783,
				-0.22405676543712616
			]
		},
		{
			"mesh":3,
			"name":"Cylinder",
			"rotation":[
				-0.6740909218788147,
				0.5991541743278503,
				-0.2764436602592468,
				0.33195576071739197
			],
			"translation":[
				-0.5210356116294861,
				0.5210589170455933,
				-0.06417205184698105
			]
		}
	],
	"materials":[
		{
			"doubleSided":true,
			"emissiveFactor":[
				1,
				1,
				1
			],
			"extensions":{
				"KHR_materials_emissive_strength":{
					"emissiveStrength":3.400000050663948
				}
			},
			"name":"Licht",
			"pbrMetallicRoughness":{
				"baseColorFactor":[
					0,
					0,
					0,
					1
				]
			}
		},
		{
			"doubleSided":true,
			"name":"Banane",
			"pbrMetallicRoughness":{}
		}
	],
	"meshes":[
		{
			"name":"Plane.002",
			"primitives":[
				{
					"attributes":{
						"POSITION":0,
						"NORMAL":1
					},
					"indices":2,
					"material":0
				}
			]
		},
		{
			"name":"Plane.001",
			"primitives":[
				{
					"attributes":{
						"POSITION":3,
						"NORMAL":4
					},
					"indices":2,
					"material":0
				}
			]
		},
		{
			"name":"Plane",
			"primitives":[
				{
					"attributes":{
						"POSITION":5,
						"NORMAL":6
					},
					"indices":7
				}
			]
		},
		{
			"name":"Cylinder",
			"primitives":[
				{
					"attributes":{
						"POSITION":8,
						"NORMAL":9,
						"TEXCOORD_0":10
					},
					"indices":11,
					"material":1
				}
			]
		}
	],
	"accessors":[
		{
			"bufferView":0,
			"componentType":5126,
			"count":4,
			"max":[
				0.9490455389022827,
				0.2527291774749756,
				9.196375846862793
			],
			"min":[
				-0.9490455389022827,
				-0.2527291774749756,
				-9.196375846862793
			],
			"type":"VEC3"
		},
		{
			"bufferView":1,
			"componentType":5126,
			"count":4,
			"type":"VEC3"
		},
		{
			"bufferView":2,
			"componentType":5123,
			"count":6,
			"type":"SCALAR"
		},
		{
			"bufferView":3,
			"componentType":5126,
			"count":4,
			"max":[
				1,
				0,
				4.841245174407959
			],
			"min":[
				-1,
				0,
				-4.841245174407959
			],
			"type":"VEC3"
		},
		{
			"bufferView":4,
			"componentType":5126,
			"count":4,
			"type":"VEC3"
		},
		{
			"bufferView":5,
			"componentType":5126,
			"count":14,
			"max":[
				0,
				4,
				8
			],
			"min":[
				-8,
				-2,
				-8
			],
			"type":"VEC3"
		},
		{
			"bufferView":6,
			"componentType":5126,
			"count":14,
			"type":"VEC3"
		},
		{
			"bufferView":7,
			"componentType":5123,
			"count":24,
			"type":"SCALAR"
		},
		{
			"bufferView":8,
			"componentType":5126,
			"count":532,
			"max":[
				0.3603058159351349,
				0.6946530342102051,
				0.23464325070381165
			],
			"min":[
				-0.4523252546787262,
				-0.9825241565704346,
				-0.12866605818271637
			],
			"type":"VEC3"
		},
		{
			"bufferView":9,
			"componentType":5126,
			"count":532,
			"type":"VEC3"
		},
		{
			"bufferView":10,
			"componentType":5126,
			"count":532,
			"type":"VEC2"
		},
		{
			"bufferView":11,
			"componentType":5123,
			"count":1674,
			"type":"SCALAR"
		}
	],
	"bufferViews":[
		{
			"buffer":0,
			"byteLength":48,
			"byteOffset":0,
			"target":34962
		},
		{
			"buffer":0,
			"byteLength":48,
			"byteOffset":48,
			"target":34962
		},
		{
			"buffer":0,
			"byteLength":12,
			"byteOffset":96,
			"target":34963
		},
		{
			"buffer":0,
			"byteLength":48,
			"byteOffset":108,
			"target":34962
		},
		{
			"buffer":0,
			"byteLength":48,
			"byteOffset":156,
			"target":34962
		},
		{
			"buffer":0,
			"byteLength":168,
			"byteOffset":204,
			"target":34962
		},
		{
			"buffer":0,
			"byteLength":168,
			"byteOffset":372,
			"target":34962
		},
		{
			"buffer":0,
			"byteLength":48,
			"byteOffset":540,
			"target":34963
		},
		{
			"buffer":0,
			"byteLength":6384,
			"byteOffset":588,
			"target":34962
		},
		{
			"buffer":0,
			"byteLength":6384,
			"byteOffset":6972,
			"target":34962
		},
		{
			"buffer":0,
			"byteLength":4256,
			"byteOffset":13356,
			"target":34962
		},
		{
			"buffer":0,
			"byteLength":3348,
			"byteOffset":17612,
			"target":34963
		}
	],
	"buffers":[
		{
			"byteLength":20960,
			"uri":"banana3.bin"
		}
	]
}
