{
	"asset":{
		"generator":"Khronos glTF Blender I/O v4.1.62",
		"version":"2.0"
	},
	"scene":0,
	"scenes":[
		{
			"name":"Scene",
			"nodes":[
				0,
				1,
				2,
				3
			]
		}
	],
	"nodes":[
		{
			"mesh":0,
			"name":"banana",
			"rotation":[
				0.007107282057404518,
				0.7070713639259338,
				0.7070708274841309,
				0.007107370067387819
			],
			"scale":[
				1,
				1.087926983833313,
				1
			],
			"translation":[
				0.837716281414032,
				2.1654300689697266,
				-0.021408013999462128
			]
		},
		{
			"name":"control",
			"rotation":[
				0.7071071863174438,
				0,
				0,
				0.7071064710617065
			],
			"translation":[
				3.4445860385894775,
				0.8299179077148438,
				1.7822988033294678
			]
		},
		{
			"name":"generatriz",
			"rotation":[
				0.5,
				0.5,
				-0.4999999403953552,
				0.5000000596046448
			],
			"translation":[
				0,
				0.8299179077148438,
				2.5648279190063477
			]
		},
		{
			"name":"directriz",
			"rotation":[
				0.02501560188829899,
				-0.7066643834114075,
				-0.7066639065742493,
				0.02501548081636429
			],
			"translation":[
				1.1525546312332153,
				2.577376127243042,
				4.460878849029541
			]
		}
	],
	"materials":[
		{
			"doubleSided":true,
			"name":"Base",
			"pbrMetallicRoughness":{}
		},
		{
			"doubleSided":true,
			"name":"Punta",
			"pbrMetallicRoughness":{}
		},
		{
			"doubleSided":true,
			"name":"Head",
			"pbrMetallicRoughness":{}
		}
	],
	"meshes":[
		{
			"name":"Mesh",
			"primitives":[
				{
					"attributes":{
						"POSITION":0,
						"NORMAL":1,
						"TEXCOORD_0":2
					},
					"indices":3,
					"material":0
				},
				{
					"attributes":{
						"POSITION":4,
						"NORMAL":5,
						"TEXCOORD_0":6
					},
					"indices":7,
					"material":1
				},
				{
					"attributes":{
						"POSITION":8,
						"NORMAL":9,
						"TEXCOORD_0":10
					},
					"indices":11,
					"material":2
				}
			]
		}
	],
	"accessors":[
		{
			"bufferView":0,
			"componentType":5126,
			"count":96,
			"max":[
				4.015244007110596,
				1.0292750597000122,
				1.3634059429168701
			],
			"min":[
				-2.5379254817962646,
				-0.923591136932373,
				-2.1344470977783203
			],
			"type":"VEC3"
		},
		{
			"bufferView":1,
			"componentType":5126,
			"count":96,
			"type":"VEC3"
		},
		{
			"bufferView":2,
			"componentType":5126,
			"count":96,
			"type":"VEC2"
		},
		{
			"bufferView":3,
			"componentType":5123,
			"count":450,
			"type":"SCALAR"
		},
		{
			"bufferView":4,
			"componentType":5126,
			"count":16,
			"max":[
				4.025625705718994,
				0.16365955770015717,
				0.053455594927072525
			],
			"min":[
				3.8696165084838867,
				-0.10367527604103088,
				-0.19079922139644623
			],
			"type":"VEC3"
		},
		{
			"bufferView":5,
			"componentType":5126,
			"count":16,
			"type":"VEC3"
		},
		{
			"bufferView":6,
			"componentType":5126,
			"count":16,
			"type":"VEC2"
		},
		{
			"bufferView":7,
			"componentType":5123,
			"count":75,
			"type":"SCALAR"
		},
		{
			"bufferView":8,
			"componentType":5126,
			"count":36,
			"max":[
				-2.1440837383270264,
				0.40346524119377136,
				1.7072155475616455
			],
			"min":[
				-2.7617828845977783,
				-0.23585185408592224,
				1.2230576276779175
			],
			"type":"VEC3"
		},
		{
			"bufferView":9,
			"componentType":5126,
			"count":36,
			"type":"VEC3"
		},
		{
			"bufferView":10,
			"componentType":5126,
			"count":36,
			"type":"VEC2"
		},
		{
			"bufferView":11,
			"componentType":5123,
			"count":135,
			"type":"SCALAR"
		}
	],
	"bufferViews":[
		{
			"buffer":0,
			"byteLength":1152,
			"byteOffset":0,
			"target":34962
		},
		{
			"buffer":0,
			"byteLength":1152,
			"byteOffset":1152,
			"target":34962
		},
		{
			"buffer":0,
			"byteLength":768,
			"byteOffset":2304,
			"target":34962
		},
		{
			"buffer":0,
			"byteLength":900,
			"byteOffset":3072,
			"target":34963
		},
		{
			"buffer":0,
			"byteLength":192,
			"byteOffset":3972,
			"target":34962
		},
		{
			"buffer":0,
			"byteLength":192,
			"byteOffset":4164,
			"target":34962
		},
		{
			"buffer":0,
			"byteLength":128,
			"byteOffset":4356,
			"target":34962
		},
		{
			"buffer":0,
			"byteLength":150,
			"byteOffset":4484,
			"target":34963
		},
		{
			"buffer":0,
			"byteLength":432,
			"byteOffset":4636,
			"target":34962
		},
		{
			"buffer":0,
			"byteLength":432,
			"byteOffset":5068,
			"target":34962
		},
		{
			"buffer":0,
			"byteLength":288,
			"byteOffset":5500,
			"target":34962
		},
		{
			"buffer":0,
			"byteLength":270,
			"byteOffset":5788,
			"target":34963
		}
	],
	"buffers":[
		{
			"byteLength":6060,
			"uri":"banana.bin"
		}
	]
}
