{
	"asset":{
		"generator":"Khronos glTF Blender I/O v4.1.62",
		"version":"2.0"
	},
	"extensionsUsed":[
		"KHR_materials_specular",
		"KHR_materials_ior"
	],
	"scene":0,
	"scenes":[
		{
			"name":"Scene",
			"nodes":[
				0
			]
		}
	],
	"nodes":[
		{
			"mesh":0,
			"name":"Dice",
			"scale":[
				0.007999999448657036,
				0.007999999448657036,
				0.007999999448657036
			],
			"translation":[
				0,
				0.00800000037997961,
				0
			]
		}
	],
	"materials":[
		{
			"doubleSided":true,
			"extensions":{
				"KHR_materials_specular":{
					"specularFactor":0.014545454643666744
				},
				"KHR_materials_ior":{
					"ior":1.4500000476837158
				}
			},
			"name":"White plastic",
			"pbrMetallicRoughness":{
				"metallicFactor":0,
				"roughnessFactor":0.05818181857466698
			}
		},
		{
			"doubleSided":true,
			"name":"Black plastic",
			"pbrMetallicRoughness":{
				"baseColorFactor":[
					0.00655460124835372,
					0.00655460124835372,
					0.00655460124835372,
					1
				],
				"metallicFactor":0,
				"roughnessFactor":0.5
			}
		}
	],
	"meshes":[
		{
			"name":"Dice mesh",
			"primitives":[
				{
					"attributes":{
						"POSITION":0,
						"NORMAL":1,
						"TEXCOORD_0":2
					},
					"indices":3,
					"material":0
				},
				{
					"attributes":{
						"POSITION":4,
						"NORMAL":5,
						"TEXCOORD_0":6
					},
					"indices":7,
					"material":1
				}
			]
		}
	],
	"accessors":[
		{
			"bufferView":0,
			"componentType":5126,
			"count":1804,
			"max":[
				1,
				1,
				1
			],
			"min":[
				-1,
				-1,
				-1
			],
			"type":"VEC3"
		},
		{
			"bufferView":1,
			"componentType":5126,
			"count":1804,
			"type":"VEC3"
		},
		{
			"bufferView":2,
			"componentType":5126,
			"count":1804,
			"type":"VEC2"
		},
		{
			"bufferView":3,
			"componentType":5123,
			"count":5994,
			"type":"SCALAR"
		},
		{
			"bufferView":4,
			"componentType":5126,
			"count":2090,
			"max":[
				1,
				1,
				1
			],
			"min":[
				-1,
				-1,
				-1
			],
			"type":"VEC3"
		},
		{
			"bufferView":5,
			"componentType":5126,
			"count":2090,
			"type":"VEC3"
		},
		{
			"bufferView":6,
			"componentType":5126,
			"count":2090,
			"type":"VEC2"
		},
		{
			"bufferView":7,
			"componentType":5123,
			"count":7824,
			"type":"SCALAR"
		}
	],
	"bufferViews":[
		{
			"buffer":0,
			"byteLength":21648,
			"byteOffset":0,
			"target":34962
		},
		{
			"buffer":0,
			"byteLength":21648,
			"byteOffset":21648,
			"target":34962
		},
		{
			"buffer":0,
			"byteLength":14432,
			"byteOffset":43296,
			"target":34962
		},
		{
			"buffer":0,
			"byteLength":11988,
			"byteOffset":57728,
			"target":34963
		},
		{
			"buffer":0,
			"byteLength":25080,
			"byteOffset":69716,
			"target":34962
		},
		{
			"buffer":0,
			"byteLength":25080,
			"byteOffset":94796,
			"target":34962
		},
		{
			"buffer":0,
			"byteLength":16720,
			"byteOffset":119876,
			"target":34962
		},
		{
			"buffer":0,
			"byteLength":15648,
			"byteOffset":136596,
			"target":34963
		}
	],
	"buffers":[
		{
			"byteLength":152244,
			"uri":"dice.bin"
		}
	]
}
