{
	"asset":{
		"generator":"Khronos glTF Blender I/O v4.1.62",
		"version":"2.0"
	},
	"scene":0,
	"scenes":[
		{
			"name":"Scene",
			"nodes":[
				0
			]
		}
	],
	"nodes":[
		{
			"mesh":0,
			"name":"Sphere",
			"rotation":[
				0.07572300732135773,
				-0.9527146816253662,
				0.08046147972345352,
				0.28306666016578674
			],
			"translation":[
				2.5536704063415527,
				0.6558592319488525,
				0.055387943983078
			]
		}
	],
	"animations":[
		{
			"channels":[
				{
					"sampler":0,
					"target":{
						"node":0,
						"path":"translation"
					}
				},
				{
					"sampler":1,
					"target":{
						"node":0,
						"path":"rotation"
					}
				},
				{
					"sampler":2,
					"target":{
						"node":0,
						"path":"scale"
					}
				}
			],
			"name":"SphereAction",
			"samplers":[
				{
					"input":4,
					"interpolation":"LINEAR",
					"output":5
				},
				{
					"input":4,
					"interpolation":"LINEAR",
					"output":6
				},
				{
					"input":7,
					"interpolation":"STEP",
					"output":8
				}
			]
		}
	],
	"materials":[
		{
			"doubleSided":true,
			"name":"Material.001",
			"pbrMetallicRoughness":{
				"baseColorTexture":{
					"index":0
				},
				"metallicFactor":0,
				"roughnessFactor":0.5
			}
		}
	],
	"meshes":[
		{
			"name":"Sphere",
			"primitives":[
				{
					"attributes":{
						"POSITION":0,
						"NORMAL":1,
						"TEXCOORD_0":2
					},
					"indices":3,
					"material":0
				}
			]
		}
	],
	"textures":[
		{
			"sampler":0,
			"source":0
		}
	],
	"images":[
		{
			"mimeType":"image/png",
			"name":"Sphere Base Color",
			"uri":"Sphere%20Base%20Color.png"
		}
	],
	"accessors":[
		{
			"bufferView":0,
			"componentType":5126,
			"count":8809,
			"max":[
				1.0000238418579102,
				1.1735342741012573,
				1.0000057220458984
			],
			"min":[
				-0.999974250793457,
				-0.7252289652824402,
				-1.0002672672271729
			],
			"type":"VEC3"
		},
		{
			"bufferView":1,
			"componentType":5126,
			"count":8809,
			"type":"VEC3"
		},
		{
			"bufferView":2,
			"componentType":5126,
			"count":8809,
			"type":"VEC2"
		},
		{
			"bufferView":3,
			"componentType":5123,
			"count":49140,
			"type":"SCALAR"
		},
		{
			"bufferView":4,
			"componentType":5126,
			"count":113,
			"max":[
				4.666666666666667
			],
			"min":[
				0
			],
			"type":"SCALAR"
		},
		{
			"bufferView":5,
			"componentType":5126,
			"count":113,
			"type":"VEC3"
		},
		{
			"bufferView":6,
			"componentType":5126,
			"count":113,
			"type":"VEC4"
		},
		{
			"bufferView":7,
			"componentType":5126,
			"count":2,
			"max":[
				4.666666666666667
			],
			"min":[
				0
			],
			"type":"SCALAR"
		},
		{
			"bufferView":8,
			"componentType":5126,
			"count":2,
			"type":"VEC3"
		}
	],
	"bufferViews":[
		{
			"buffer":0,
			"byteLength":105708,
			"byteOffset":0,
			"target":34962
		},
		{
			"buffer":0,
			"byteLength":105708,
			"byteOffset":105708,
			"target":34962
		},
		{
			"buffer":0,
			"byteLength":70472,
			"byteOffset":211416,
			"target":34962
		},
		{
			"buffer":0,
			"byteLength":98280,
			"byteOffset":281888,
			"target":34963
		},
		{
			"buffer":0,
			"byteLength":452,
			"byteOffset":380168
		},
		{
			"buffer":0,
			"byteLength":1356,
			"byteOffset":380620
		},
		{
			"buffer":0,
			"byteLength":1808,
			"byteOffset":381976
		},
		{
			"buffer":0,
			"byteLength":8,
			"byteOffset":383784
		},
		{
			"buffer":0,
			"byteLength":24,
			"byteOffset":383792
		}
	],
	"samplers":[
		{
			"magFilter":9729,
			"minFilter":9987
		}
	],
	"buffers":[
		{
			"byteLength":383816,
			"uri":"gala-apple3.bin"
		}
	]
}
